<svg width="74" height="75" viewBox="0 0 74 75" fill="none" xmlns="http://www.w3.org/2000/svg">
<g filter="url(#filter0_d_4973_19271)">
<rect x="4" y="2" width="66" height="67" rx="33" fill="url(#paint0_linear_4973_19271)" fill-opacity="0.78" shape-rendering="crispEdges"/>
<rect x="4.5" y="2.5" width="65" height="66" rx="32.5" stroke="url(#paint1_linear_4973_19271)" shape-rendering="crispEdges"/>
<path d="M54 35.9093C54 45.8942 47.2488 53 37.2787 53C27.7197 53 20 45.1815 20 35.5C20 25.8185 27.7197 18 37.2787 18C41.9328 18 45.8484 19.7288 48.8652 22.5796L44.1623 27.1593C38.0102 21.1472 26.5701 25.6633 26.5701 35.5C26.5701 41.6038 31.3844 46.5504 37.2787 46.5504C44.1205 46.5504 46.6844 41.5827 47.0885 39.0071H37.2787V32.9879H53.7283C53.8885 33.8841 54 34.745 54 35.9093Z" fill="white"/>
</g>
<defs>
<filter id="filter0_d_4973_19271" x="0" y="0" width="74" height="75" filterUnits="userSpaceOnUse" color-interpolation-filters="sRGB">
<feFlood flood-opacity="0" result="BackgroundImageFix"/>
<feColorMatrix in="SourceAlpha" type="matrix" values="0 0 0 0 0 0 0 0 0 0 0 0 0 0 0 0 0 0 127 0" result="hardAlpha"/>
<feOffset dy="2"/>
<feGaussianBlur stdDeviation="2"/>
<feComposite in2="hardAlpha" operator="out"/>
<feColorMatrix type="matrix" values="0 0 0 0 0.3375 0 0 0 0 0.209677 0 0 0 0 0.169313 0 0 0 0.25 0"/>
<feBlend mode="normal" in2="BackgroundImageFix" result="effect1_dropShadow_4973_19271"/>
<feBlend mode="normal" in="SourceGraphic" in2="effect1_dropShadow_4973_19271" result="shape"/>
</filter>
<linearGradient id="paint0_linear_4973_19271" x1="10.0762" y1="2.00002" x2="67.8953" y2="2.63062" gradientUnits="userSpaceOnUse">
<stop stop-color="#EF3C89"/>
<stop offset="0.935417" stop-color="#F9B93F"/>
</linearGradient>
<linearGradient id="paint1_linear_4973_19271" x1="37" y1="2" x2="37" y2="69" gradientUnits="userSpaceOnUse">
<stop stop-color="#F26A96"/>
<stop offset="1" stop-color="#C4268E" stop-opacity="0"/>
</linearGradient>
</defs>
</svg>
