<svg width="76" height="75" viewBox="0 0 76 75" fill="none" xmlns="http://www.w3.org/2000/svg">
<g filter="url(#filter0_d_4973_19273)">
<rect x="4" y="2" width="68" height="67" rx="33.5" fill="url(#paint0_linear_4973_19273)" fill-opacity="0.78" shape-rendering="crispEdges"/>
<rect x="4.5" y="2.5" width="67" height="66" rx="33" stroke="url(#paint1_linear_4973_19273)" shape-rendering="crispEdges"/>
<g clip-path="url(#clip0_4973_19273)">
<path d="M55.1661 18L39.7188 29.5146L42.5913 22.7287L55.1661 18Z" fill="#E17726"/>
<path d="M20.8711 18.0137L33.4122 22.7296L36.1398 29.6045L20.8711 18.0137Z" fill="#E27625"/>
<path d="M48.9482 42.4883L55.7757 42.6192L53.3896 50.7852L45.0586 48.4744L48.9482 42.4883Z" fill="#E27625"/>
<path d="M27.0517 42.4883L30.9269 48.4744L22.6099 50.7853L20.2383 42.6192L27.0517 42.4883Z" fill="#E27625"/>
<path d="M35.7692 27.8535L36.0483 36.932L27.6992 36.5493L30.074 32.94L30.1041 32.9052L35.7692 27.8535Z" fill="#E27625"/>
<path d="M40.1441 27.752L45.8956 32.9053L45.9254 32.9398L48.3002 36.5491L39.9531 36.9317L40.1441 27.752Z" fill="#E27625"/>
<path d="M31.1704 42.5146L35.7293 46.093L30.4336 48.6687L31.1704 42.5146Z" fill="#E27625"/>
<path d="M44.8288 42.5137L45.5503 48.6683L40.2695 46.0923L44.8288 42.5137Z" fill="#E27625"/>
<path d="M40.3867 45.7559L45.7455 48.3699L40.7608 50.7565L40.8125 49.1791L40.3867 45.7559Z" fill="#D5BFB2"/>
<path d="M35.6103 45.7568L35.2012 49.1531L35.2347 50.7544L30.2383 48.3697L35.6103 45.7568Z" fill="#D5BFB2"/>
<path d="M34.0627 38.1162L35.463 41.081L30.6953 39.674L34.0627 38.1162Z" fill="#233447"/>
<path d="M41.9351 38.1172L45.3183 39.6746L40.5352 41.0812L41.9351 38.1172Z" fill="#233447"/>
<path d="M31.5341 42.4844L30.7634 48.865L26.6328 42.6239L31.5341 42.4844Z" fill="#CC6228"/>
<path d="M44.4648 42.4844L49.3662 42.6239L45.2201 48.8652L44.4648 42.4844Z" fill="#CC6228"/>
<path d="M48.4229 36.1885L44.8558 39.8507L42.1057 38.5846L40.789 41.3732L39.9258 36.5779L48.4229 36.1885Z" fill="#CC6228"/>
<path d="M27.5781 36.1885L36.0767 36.578L35.2135 41.3732L33.8965 38.585L31.1608 39.8508L27.5781 36.1885Z" fill="#CC6228"/>
<path d="M27.3359 35.4365L31.3716 39.562L31.5115 43.6347L27.3359 35.4365Z" fill="#E27525"/>
<path d="M48.6674 35.4297L44.4844 43.6426L44.6419 39.5625L48.6674 35.4297Z" fill="#E27525"/>
<path d="M35.8794 35.6875L36.0418 36.7174L36.4432 39.2831L36.1852 47.1634L34.9652 40.8331L34.9648 40.7676L35.8794 35.6875Z" fill="#E27525"/>
<path d="M40.1198 35.6738L41.0368 40.7682L41.0364 40.8336L39.8134 47.1798L39.765 45.5924L39.5742 39.237L40.1198 35.6738Z" fill="#E27525"/>
<path d="M45.0006 39.3984L44.864 42.937L40.6067 46.2785L39.7461 45.6659L40.7108 40.6601L45.0006 39.3984Z" fill="#F5841F"/>
<path d="M31.0117 39.3984L35.2867 40.6601L36.2514 45.6659L35.3907 46.2784L31.1332 42.9366L31.0117 39.3984Z" fill="#F5841F"/>
<path d="M29.4258 47.5879L34.8725 50.1877L34.8494 49.0776L35.3051 48.6746H40.6958L41.1681 49.0762L41.1333 50.1856L46.5454 47.5945L43.9119 49.7868L40.7273 51.9903H35.2615L32.079 49.7778L29.4258 47.5879Z" fill="#C0AC9D"/>
<path d="M39.9986 45.4092L40.7687 45.9572L41.22 49.5845L40.5669 49.029H35.4375L34.7969 49.5957L35.2333 45.9575L36.0037 45.4092H39.9986Z" fill="#161616"/>
<path d="M54.1473 18.3184L56.0015 23.9223L54.8435 29.5885L55.6681 30.2294L54.5523 31.087L55.3909 31.7394L54.2805 32.7582L54.9622 33.2556L53.153 35.3842L45.7322 33.2076L45.6679 33.1729L40.3203 28.6284L54.1473 18.3184Z" fill="#763E1A"/>
<path d="M21.8543 18.3184L35.6813 28.6284L30.3338 33.1729L30.2694 33.2076L22.8486 35.3842L21.0394 33.2556L21.7206 32.7586L20.6107 31.7394L21.4477 31.0877L20.3152 30.2276L21.1709 29.5864L20 23.9225L21.8543 18.3184Z" fill="#763E1A"/>
<path d="M45.3679 32.7324L53.2307 35.0386L55.7852 42.9699L49.0459 42.9699L44.4023 43.0289L47.7793 36.3978L45.3679 32.7324Z" fill="#F5841F"/>
<path d="M30.6336 32.7324L28.2217 36.3978L31.5991 43.0289L26.9578 42.9699H20.2305L22.7706 35.0386L30.6336 32.7324Z" fill="#F5841F"/>
<path d="M42.9753 22.6904L40.776 28.6743L40.3093 36.7579L40.1307 39.2915L40.1166 45.7639H35.8822L35.8684 39.3037L35.6893 36.7556L35.2223 28.6743L33.0234 22.6904H42.9753Z" fill="#F5841F"/>
</g>
</g>
<defs>
<filter id="filter0_d_4973_19273" x="0" y="0" width="76" height="75" filterUnits="userSpaceOnUse" color-interpolation-filters="sRGB">
<feFlood flood-opacity="0" result="BackgroundImageFix"/>
<feColorMatrix in="SourceAlpha" type="matrix" values="0 0 0 0 0 0 0 0 0 0 0 0 0 0 0 0 0 0 127 0" result="hardAlpha"/>
<feOffset dy="2"/>
<feGaussianBlur stdDeviation="2"/>
<feComposite in2="hardAlpha" operator="out"/>
<feColorMatrix type="matrix" values="0 0 0 0 0.3375 0 0 0 0 0.209677 0 0 0 0 0.169313 0 0 0 0.25 0"/>
<feBlend mode="normal" in2="BackgroundImageFix" result="effect1_dropShadow_4973_19273"/>
<feBlend mode="normal" in="SourceGraphic" in2="effect1_dropShadow_4973_19273" result="shape"/>
</filter>
<linearGradient id="paint0_linear_4973_19273" x1="10.2603" y1="2.00002" x2="69.8311" y2="2.66941" gradientUnits="userSpaceOnUse">
<stop stop-color="#EF3C89"/>
<stop offset="0.935417" stop-color="#F9B93F"/>
</linearGradient>
<linearGradient id="paint1_linear_4973_19273" x1="38" y1="2" x2="38" y2="69" gradientUnits="userSpaceOnUse">
<stop stop-color="#F26A96"/>
<stop offset="1" stop-color="#C4268E" stop-opacity="0"/>
</linearGradient>
<clipPath id="clip0_4973_19273">
<rect width="36" height="34" fill="white" transform="translate(20 18)"/>
</clipPath>
</defs>
</svg>
