<svg width="76" height="75" viewBox="0 0 76 75" fill="none" xmlns="http://www.w3.org/2000/svg">
<g filter="url(#filter0_d_4973_19305)">
<rect x="4" y="2" width="68" height="67" rx="33.5" fill="url(#paint0_linear_4973_19305)" fill-opacity="0.78" shape-rendering="crispEdges"/>
<rect x="4.5" y="2.5" width="67" height="66" rx="33" stroke="url(#paint1_linear_4973_19305)" shape-rendering="crispEdges"/>
<g clip-path="url(#clip0_4973_19305)">
<path d="M55.2696 24.7617C53.9956 25.3287 52.6236 25.7067 51.1886 25.8817C52.6586 24.9997 53.7786 23.6067 54.3106 21.9547C52.9386 22.7597 51.4196 23.3547 49.8026 23.6697C48.5076 22.2907 46.6596 21.4297 44.6156 21.4297C40.6886 21.4297 37.5106 24.6077 37.5106 28.5347C37.5106 29.0947 37.5736 29.6337 37.6926 30.1517C31.7916 29.8577 26.5556 27.0297 23.0486 22.7317C22.4396 23.7817 22.0896 24.9997 22.0896 26.3017C22.0896 28.7657 23.3426 30.9427 25.2466 32.2167C24.0846 32.1817 22.9856 31.8597 22.0266 31.3277C22.0266 31.3557 22.0266 31.3837 22.0266 31.4187C22.0266 34.8627 24.4766 37.7327 27.7246 38.3837C27.1296 38.5447 26.4996 38.6357 25.8556 38.6357C25.4006 38.6357 24.9526 38.5937 24.5186 38.5097C25.4216 41.3307 28.0466 43.3887 31.1546 43.4447C28.7256 45.3487 25.6596 46.4827 22.3346 46.4827C21.7606 46.4827 21.1936 46.4477 20.6406 46.3847C23.7836 48.4007 27.5216 49.5767 31.5326 49.5767C44.6016 49.5767 51.7486 38.7547 51.7486 29.3607C51.7486 29.0527 51.7416 28.7447 51.7276 28.4437C53.1136 27.4357 54.3176 26.1827 55.2696 24.7617Z" fill="white"/>
</g>
</g>
<defs>
<filter id="filter0_d_4973_19305" x="0" y="0" width="76" height="75" filterUnits="userSpaceOnUse" color-interpolation-filters="sRGB">
<feFlood flood-opacity="0" result="BackgroundImageFix"/>
<feColorMatrix in="SourceAlpha" type="matrix" values="0 0 0 0 0 0 0 0 0 0 0 0 0 0 0 0 0 0 127 0" result="hardAlpha"/>
<feOffset dy="2"/>
<feGaussianBlur stdDeviation="2"/>
<feComposite in2="hardAlpha" operator="out"/>
<feColorMatrix type="matrix" values="0 0 0 0 0.3375 0 0 0 0 0.209677 0 0 0 0 0.169313 0 0 0 0.25 0"/>
<feBlend mode="normal" in2="BackgroundImageFix" result="effect1_dropShadow_4973_19305"/>
<feBlend mode="normal" in="SourceGraphic" in2="effect1_dropShadow_4973_19305" result="shape"/>
</filter>
<linearGradient id="paint0_linear_4973_19305" x1="10.2603" y1="2.00002" x2="69.8311" y2="2.66941" gradientUnits="userSpaceOnUse">
<stop stop-color="#EF3C89"/>
<stop offset="0.935417" stop-color="#F9B93F"/>
</linearGradient>
<linearGradient id="paint1_linear_4973_19305" x1="38" y1="2" x2="38" y2="69" gradientUnits="userSpaceOnUse">
<stop stop-color="#F26A96"/>
<stop offset="1" stop-color="#C4268E" stop-opacity="0"/>
</linearGradient>
<clipPath id="clip0_4973_19305">
<rect width="35" height="31.5" fill="white" transform="translate(20.5 19.75)"/>
</clipPath>
</defs>
</svg>
